<svg width="8.500000in" height="11.000000in" viewBox="0 0 816.000000 1056.000000" xmlns="http://www.w3.org/2000/svg">
<defs>
  <marker style="overflow:visible" id="Arrow1Sstart" refX="0.0" refY="0.0" orient="auto">
    <path transform="scale(0.2) translate(6,0)" style="fill-rule:evenodd;fill:context-stroke;stroke:context-stroke;stroke-width:1.0pt" d="M 0.0,0.0 L 5.0,-5.0 L -12.5,0.0 L 5.0,5.0 L 0.0,0.0 z "/>
  </marker>
</defs>
<g>
<line x1="504" y1="528" x2="408" y2="528" stroke="red" stroke-width="5" marker-start="url(#Arrow1Sstart)" />
<line x1="408" y1="432" x2="408" y2="528" stroke="green" stroke-width="5" marker-start="url(#Arrow1Sstart)" />
<text x="398" y="538">{a}</text>
</g>
<g>
<line x1="529.68" y1="339.498" x2="504" y2="432" stroke="red" stroke-width="5" marker-start="url(#Arrow1Sstart)" />
<line x1="411.498" y1="406.32" x2="504" y2="432" stroke="green" stroke-width="5" marker-start="url(#Arrow1Sstart)" />
<text x="494" y="442">{b}</text>
</g>
<g>
<line x1="581.04" y1="154.495" x2="555.36" y2="246.997" stroke="red" stroke-width="5" marker-start="url(#Arrow1Sstart)" />
<line x1="462.858" y1="221.317" x2="555.36" y2="246.997" stroke="green" stroke-width="5" marker-start="url(#Arrow1Sstart)" />
<text x="545.36" y="256.997">{c}</text>
</g>
<circle cx="432" cy="576" r="5" stroke="purple" fill="purple" />
<circle cx="432" cy="576" r="5" stroke="brown" fill="brown" />
<circle cx="432" cy="576" r="5" stroke="orange" fill="orange" />
<line x1="532.8" y1="460.8" x2="504" y2="432" stroke="brown" stroke-width="5" marker-start="url(#Arrow1Sstart)" />
<line x1="571.882" y1="499.882" x2="504" y2="432" stroke="black" stroke-width="5" marker-start="url(#Arrow1Sstart)" />
<line x1="443.454" y1="507.953" x2="408" y2="528" stroke="purple" stroke-width="5" marker-start="url(#Arrow1Sstart)" />
<line x1="436.8" y1="556.8" x2="555.36" y2="246.997" stroke="orange" stroke-width="5" marker-start="url(#Arrow1Sstart)" />
</svg>
