<svg width="8.500000in" height="11.000000in" viewBox="0 0 816.000000 1056.000000" xmlns="http://www.w3.org/2000/svg">
<defs>
  <marker style="overflow:visible" id="Arrow1Sstart" refX="0.0" refY="0.0" orient="auto">
    <path transform="scale(0.2) translate(6,0)" style="fill-rule:evenodd;fill:context-stroke;stroke:context-stroke;stroke-width:1.0pt" d="M 0.0,0.0 L 5.0,-5.0 L -12.5,0.0 L 5.0,5.0 L 0.0,0.0 z "/>
  </marker>
</defs>
<g>
<line x1="504" y1="528" x2="408" y2="528" stroke="red" stroke-width="5" marker-start="url(#Arrow1Sstart)" />
<line x1="408" y1="432" x2="408" y2="528" stroke="green" stroke-width="5" marker-start="url(#Arrow1Sstart)" />
<text x="398" y="538">{a}</text>
</g>
<g>
<line x1="600" y1="336" x2="504" y2="336" stroke="red" stroke-width="5" marker-start="url(#Arrow1Sstart)" />
<line x1="504" y1="240" x2="504" y2="336" stroke="green" stroke-width="5" marker-start="url(#Arrow1Sstart)" />
<text x="494" y="346">{b}</text>
</g>
<g>
<line x1="715.2" y1="144" x2="619.2" y2="144" stroke="red" stroke-width="5" marker-start="url(#Arrow1Sstart)" />
<line x1="619.2" y1="48" x2="619.2" y2="144" stroke="green" stroke-width="5" marker-start="url(#Arrow1Sstart)" />
<text x="609.2" y="154">{c}</text>
</g>
<circle cx="427.2" cy="336" r="5" stroke="purple" fill="purple" />
<circle cx="427.2" cy="336" r="5" stroke="brown" fill="brown" />
<circle cx="427.2" cy="336" r="5" stroke="orange" fill="orange" />
<line x1="600" y1="144" x2="504" y2="336" stroke="brown" stroke-width="5" marker-start="url(#Arrow1Sstart)" />
<line x1="546.933" y1="250.135" x2="504" y2="336" stroke="black" stroke-width="5" marker-start="url(#Arrow1Sstart)" />
<line x1="504" y1="336" x2="408" y2="528" stroke="purple" stroke-width="5" marker-start="url(#Arrow1Sstart)" />
<line x1="504" y1="336" x2="619.2" y2="144" stroke="orange" stroke-width="5" marker-start="url(#Arrow1Sstart)" />
</svg>
